<?xml version="1.0" encoding="utf-8"?>
<!-- Generator: Adobe Illustrator 24.1.1, SVG Export Plug-In . SVG Version: 6.00 Build 0)  -->
<svg version="1.1" id="Layer_1" xmlns="http://www.w3.org/2000/svg" xmlns:xlink="http://www.w3.org/1999/xlink" x="0px" y="0px"
	 viewBox="0 0 240 84" style="enable-background:new 0 0 240 84;" xml:space="preserve">
<style type="text/css">
	.st0{fill:#2708A0;}
	.st1{fill:#0DD434;}
	.st2{fill:#181349;}
</style>
<circle class="st0" cx="33.9" cy="42" r="22"/>
<path class="st1" d="M38.9,60C28,56.5,16.4,42.3,22.8,30.5c5.5-10.1,22.6-5.8,23.8,5.2c0.4,3.7-1.1,6.9-3.1,9.9
	c-1.2,1.7-2.3,3.4-3.3,5.2c-0.8,1.9-1.3,3.8-1.4,5.9C38.8,57.8,38.8,58.9,38.9,60z"/>
<path class="st0" d="M38.7,60.2c-0.2-0.2-18-17.1-4.8-36.3l0.6,0.4C21.6,43,38.9,59.5,39.1,59.7L38.7,60.2z"/>
<polygon class="st0" points="27.5,52.4 26.9,52 30.7,46.7 41.4,51.8 41.1,52.4 30.9,47.5 "/>
<polygon class="st0" points="22.4,45.6 21.9,45.1 29.2,38 44.4,44.4 44.1,45 29.3,38.8 "/>
<polygon class="st0" points="47.1,36.5 31.8,28.5 20.8,35.2 20.5,34.6 31.8,27.7 47.4,35.9 "/>
<path class="st2" d="M71,52.1c-0.7,0-1.3-0.2-1.9-0.7c-0.6-0.4-0.9-1.2-0.9-1.9V35.6c0-0.7,0.2-1.3,0.7-1.8c0.5-0.4,1.1-0.7,1.7-0.7
	H75c1.7,0,3.5,0.4,5,1.2c1.4,0.7,2.6,1.9,3.4,3.3c1.6,3.1,1.6,6.7,0.1,9.9c-0.7,1.4-1.8,2.6-3.1,3.4c-1.4,0.8-2.9,1.3-4.5,1.3
	L71,52.1z M73,49.1h2c1.7,0.1,3.4-0.5,4.7-1.6c1.2-1.3,1.7-3.1,1.6-4.8c0.1-1.8-0.5-3.6-1.7-4.9c-1.2-1.2-2.9-1.8-4.6-1.7h-2
	c-0.7-0.1-1.3,0.4-1.4,1.1c0,0.1,0,0.2,0,0.3v10.2c-0.1,0.7,0.4,1.3,1,1.4C72.7,49.2,72.9,49.2,73,49.1z"/>
<path class="st2" d="M94,52.5c-1.3,0-2.6-0.3-3.8-1c-1.1-0.6-2-1.5-2.6-2.6c-0.7-1.1-1-2.4-1-3.8c0-1.3,0.3-2.5,1-3.7
	c0.6-1.1,1.5-2,2.6-2.6c1.1-0.6,2.4-0.9,3.7-0.9c1.3,0,2.6,0.3,3.7,0.9c2.3,1.2,3.6,3.6,3.6,6.2c0,1.3-0.3,2.6-1,3.8
	c-0.6,1.1-1.5,2-2.6,2.6C96.6,52.2,95.3,52.6,94,52.5z M94,49.6c1.1,0,2.2-0.4,3-1.2c0.8-0.9,1.2-2,1.1-3.2c0-1.1-0.4-2.2-1.1-3
	c-0.8-0.8-1.9-1.2-3-1.2c-1.1-0.1-2.2,0.4-3,1.1c-0.8,0.8-1.2,1.9-1.1,3c-0.1,1.2,0.3,2.4,1.1,3.3C91.8,49.2,92.9,49.7,94,49.6z"/>
<path class="st2" d="M107.6,52.5c-1.1,0.1-2.1-0.7-2.3-1.8l-2.9-10.6c0-0.1,0-0.2-0.1-0.3v-0.2c0-0.4,0.2-0.8,0.4-1.1
	c0.3-0.3,0.7-0.5,1.2-0.5c0.4,0,0.7,0.1,1,0.3c0.3,0.2,0.5,0.5,0.6,0.8l1.8,8.3c0.1,0.3,0.2,0.5,0.4,0.5s0.4-0.2,0.5-0.5l2.5-7.3
	c0.1-0.4,0.4-0.8,0.8-1c0.4-0.2,0.8-0.3,1.2-0.3c0.4,0,0.8,0.1,1.2,0.3c0.4,0.2,0.6,0.6,0.7,1l2.5,7.3c0.1,0.3,0.3,0.5,0.5,0.5
	s0.4-0.2,0.4-0.5l1.8-8.3c0.1-0.3,0.3-0.6,0.5-0.8c0.3-0.2,0.6-0.3,1-0.3c0.4,0,0.9,0.1,1.2,0.5c0.3,0.3,0.5,0.7,0.4,1.1v0.2
	c0,0.1,0,0.2,0,0.3l-2.9,10.6c-0.2,1.1-1.2,1.8-2.3,1.8c-0.6,0-1.1-0.2-1.5-0.5c-0.4-0.3-0.7-0.8-0.9-1.3l-2.2-6.9
	c-0.1-0.4-0.3-0.6-0.4-0.6s-0.3,0.2-0.5,0.6l-2.1,6.9c-0.2,0.5-0.5,0.9-0.9,1.3C108.6,52.3,108.1,52.5,107.6,52.5z"/>
<path class="st2" d="M136.9,52.5c-0.4,0-0.8-0.1-1.1-0.4c-0.3-0.3-0.5-0.7-0.5-1.1v-6c0.1-1.1-0.2-2.2-0.9-3.1
	c-1.5-1.4-3.8-1.3-5.2,0.2c0,0-0.1,0.1-0.1,0.1c-0.6,0.8-0.9,1.8-0.9,2.8v6c0,0.4-0.2,0.8-0.5,1.1c-0.3,0.2-0.7,0.4-1.1,0.4
	c-0.4,0-0.8-0.1-1.1-0.4c-0.3-0.3-0.5-0.7-0.5-1.1V39.9c0-0.5,0.2-0.9,0.5-1.2c0.3-0.3,0.7-0.4,1.1-0.4c0.4,0,0.8,0.1,1.1,0.4
	c0.3,0.3,0.5,0.8,0.5,1.2c0.6-0.6,1.3-1,2.1-1.3c0.8-0.3,1.6-0.5,2.4-0.5c1.6-0.1,3.1,0.5,4.2,1.7c1.1,1.4,1.7,3.2,1.6,5V51
	c0,0.4-0.2,0.8-0.5,1.1C137.7,52.4,137.3,52.5,136.9,52.5z"/>
<path class="st2" d="M143.7,52.1c-0.9,0-1.7-0.7-1.7-1.6c0,0,0,0,0,0c0-0.6,0.3-1.2,0.8-1.7l4.1-3.9c1-1,2-2,2.8-3.2
	c0.7-0.9,1.1-2,1.1-3.1c0.1-0.8-0.3-1.6-0.9-2.2c-0.6-0.5-1.3-0.7-2.1-0.7c-0.7,0-1.4,0.2-2,0.6c-0.7,0.5-1.1,1.2-1.2,2
	c0,0.4-0.2,0.7-0.6,0.9c-0.3,0.2-0.6,0.3-1,0.3c-0.4,0-0.7-0.1-1-0.4c-0.3-0.2-0.5-0.6-0.4-1c0-1.1,0.4-2.1,1.1-2.9
	c0.6-0.8,1.5-1.4,2.4-1.8c0.9-0.4,2-0.6,3-0.6c1,0,2,0.2,2.9,0.6c0.9,0.4,1.7,1,2.3,1.8c0.6,0.9,0.9,2,0.9,3.1c0,1-0.2,1.9-0.6,2.8
	c-0.6,1.3-1.4,2.4-2.4,3.4l-3.7,3.7c-0.2,0.2-0.3,0.4-0.2,0.6c0.1,0.2,0.3,0.3,0.6,0.3h5.2c0.4,0,0.9,0.1,1.2,0.4
	c0.3,0.3,0.4,0.7,0.4,1.1c0.1,0.7-0.4,1.3-1.1,1.4c-0.1,0-0.2,0-0.4,0L143.7,52.1z"/>
<path class="st2" d="M160.6,52.1c-0.7,0-1.4-0.2-1.9-0.7c-0.5-0.5-0.7-1.2-0.7-1.9V35.6c0-0.7,0.2-1.3,0.7-1.8
	c0.5-0.4,1.1-0.7,1.7-0.7h7.1c0.4,0,0.9,0.1,1.2,0.4c0.2,0.3,0.4,0.6,0.4,1c0,0.4-0.1,0.7-0.4,1c-0.3,0.3-0.7,0.4-1.1,0.4h-5.1
	c-0.6-0.1-1.2,0.3-1.2,0.9c0,0.1,0,0.2,0,0.3v2.6c0,0.8,0.4,1.2,1.1,1.2h4.7c0.4,0,0.9,0.1,1.2,0.4c0.2,0.3,0.4,0.6,0.4,1
	c0,0.8-0.7,1.4-1.5,1.4c0,0,0,0,0,0h-4.7c-0.5-0.1-1.1,0.3-1.1,0.8c0,0.1,0,0.2,0,0.4v2.9c0,0.8,0.4,1.2,1.2,1.2h5.6
	c0.4,0,0.9,0.1,1.2,0.5c0.2,0.3,0.3,0.6,0.4,1c0,0.4-0.1,0.7-0.4,1c-0.3,0.3-0.7,0.4-1.1,0.4L160.6,52.1z"/>
<path class="st2" d="M179,52.5c-1.3,0-2.5-0.3-3.6-1c-1.1-0.6-1.9-1.5-2.5-2.6c-0.6-1.2-0.9-2.5-0.9-3.8c0-1.3,0.3-2.5,0.9-3.7
	c0.6-1.1,1.4-2,2.5-2.6c1.1-0.6,2.4-1,3.6-0.9c0.8,0,1.6,0.1,2.4,0.5c0.7,0.3,1.3,0.7,1.8,1.2c0-0.4,0.2-0.8,0.6-1
	c0.3-0.2,0.7-0.3,1.1-0.3c0.4,0,0.8,0.1,1.1,0.4c0.3,0.3,0.5,0.8,0.5,1.2v11.1c0,0.4-0.2,0.8-0.5,1.1c-0.7,0.5-1.6,0.5-2.2,0
	c-0.3-0.3-0.5-0.7-0.5-1.1v-0.2c-0.5,0.5-1.1,0.9-1.8,1.2C180.6,52.4,179.8,52.6,179,52.5z M179.3,49.6c1.1,0.1,2.1-0.4,2.8-1.2
	c0.7-0.9,1.1-2,1-3.2c0.1-1.1-0.3-2.2-1-3c-0.7-0.8-1.8-1.2-2.8-1.2c-2.2-0.1-4,1.5-4.1,3.7c0,0.2,0,0.3,0,0.5
	c-0.1,1.2,0.4,2.3,1.1,3.2C177.1,49.2,178.2,49.6,179.3,49.6z"/>
<path class="st2" d="M193.2,45v6c0,0.4-0.2,0.8-0.5,1.1c-0.3,0.2-0.7,0.4-1.1,0.4c-0.4,0-0.8-0.1-1.1-0.4c-0.3-0.3-0.5-0.7-0.5-1.1
	V39.9c0-0.5,0.1-0.9,0.5-1.2c0.3-0.3,0.7-0.4,1.1-0.4c0.4,0,0.8,0.1,1.1,0.4c0.3,0.3,0.5,0.8,0.5,1.2v0.2c0.5-0.6,1-1.1,1.7-1.5
	c0.7-0.4,1.5-0.6,2.3-0.6c0.4,0,0.8,0,1.1,0.1c0.3,0.1,0.7,0.3,0.9,0.6c0.2,0.3,0.3,0.6,0.3,1c0,0.4-0.1,0.8-0.4,1.1
	c-0.3,0.3-0.7,0.5-1.2,0.5c-0.2,0-0.5,0-0.7-0.1c-0.3-0.1-0.6-0.1-0.9-0.1c-0.9,0-1.7,0.3-2.3,1C193.4,43,193.1,44,193.2,45z"/>
<path class="st2" d="M206.9,52.5c-1.1,0-2.2-0.4-3-1.1c-0.9-0.9-1.3-2.1-1.2-3.4v-6c0-0.2-0.1-0.4-0.3-0.5c0,0-0.1,0-0.1,0h-0.9
	c-0.4,0-0.7-0.1-1-0.4c-0.3-0.3-0.4-0.6-0.4-1c0-0.4,0.1-0.8,0.4-1.1c0.3-0.3,0.6-0.4,1-0.4h0.9c0.2,0,0.4-0.1,0.5-0.3
	c0,0,0-0.1,0-0.1v-4c0-0.4,0.1-0.8,0.4-1.1c0.3-0.3,0.7-0.4,1.1-0.4c0.4,0,0.8,0.1,1.2,0.4c0.3,0.3,0.5,0.7,0.4,1.1v4
	c0,0.2,0.1,0.4,0.4,0.5c0,0,0.1,0,0.1,0h2.6c0.4,0,0.7,0.2,1,0.4c0.3,0.3,0.4,0.7,0.4,1.1c0,0.4-0.1,0.7-0.4,1
	c-0.3,0.3-0.7,0.4-1.1,0.4h-2.5c-0.2,0-0.4,0.1-0.5,0.4c0,0,0,0.1,0,0.1v5.6c0,1.3,0.5,2,1.6,2c0.3,0,0.7,0,1-0.1
	c0.2-0.1,0.5-0.1,0.7-0.1c0.4,0,0.8,0.1,1,0.4c0.2,0.3,0.4,0.6,0.4,1c0,0.3-0.1,0.6-0.2,0.8c-0.2,0.3-0.4,0.5-0.8,0.6
	c-0.4,0.1-0.9,0.3-1.3,0.3C207.8,52.5,207.3,52.5,206.9,52.5z"/>
<path class="st2" d="M214.5,52.5c-0.4,0-0.8-0.1-1.1-0.4c-0.3-0.3-0.5-0.7-0.5-1.1v-18c0-0.5,0.1-0.9,0.5-1.2
	c0.3-0.3,0.7-0.4,1.1-0.4c0.4,0,0.8,0.1,1.1,0.4c0.3,0.3,0.5,0.8,0.5,1.2v6.8c0.6-0.6,1.2-1,2-1.3c0.7-0.3,1.5-0.5,2.4-0.5
	c1.6,0,3.1,0.6,4.2,1.7c1.2,1.4,1.9,3.2,1.7,5V51c0,0.4-0.2,0.8-0.5,1.1c-0.3,0.2-0.7,0.4-1.1,0.4c-0.4,0-0.8-0.1-1.1-0.4
	c-0.3-0.3-0.5-0.7-0.5-1.1v-6c0.1-1.1-0.2-2.2-0.9-3.1c-1.5-1.4-3.8-1.3-5.2,0.2c0,0,0,0-0.1,0.1c-0.6,0.8-0.8,1.8-0.8,2.8v6
	c0,0.4-0.2,0.8-0.5,1.1C215.3,52.4,214.9,52.5,214.5,52.5z"/>
</svg>
